<svg xmlns="http://www.w3.org/2000/svg" viewBox="0 0 180 180">
  <rect width="180" height="180" fill="#201A13"/>
  <g transform="translate(30,30) scale(5)">
    <path d="M3 3 H10.5 Q10.5 1.5 12 1.5 V10.5 H10.5 Q10.5 12 9 12 H3 Z" fill="#F4A52B"/>
    <path d="M12 1.5 H13.5 Q13.5 3 15 3 H21 V10.5 Q22.5 10.5 22.5 12 H12 Z" fill="#F4ECDE"/>
    <path d="M3 12 H12 V22.5 H4.5 Q3 22.5 3 21 V13.5 Q1.5 13.5 1.5 12 Z" fill="#F4ECDE"/>
    <path d="M12 12 H22.5 Q22.5 13.5 21 13.5 V21 Q21 22.5 19.5 22.5 H13.5 Q13.5 21 12 21 Z" fill="#F4A52B"/>
  </g>
</svg>
