<?xml version="1.0" encoding="UTF-8"?>
<svg xmlns="http://www.w3.org/2000/svg" style="display:none" aria-hidden="true">
  
  <symbol id="brand-mark" viewBox="0 0 24 24">
    <path d="M3 3 H10.5 Q10.5 1.5 12 1.5 V10.5 H10.5 Q10.5 12 9 12 H3 Z" fill="#F5B13F"></path>
    <path d="M12 1.5 H13.5 Q13.5 3 15 3 H21 V10.5 Q22.5 10.5 22.5 12 H12 Z" fill="#F4ECDE"></path>
    <path d="M3 12 H12 V22.5 H4.5 Q3 22.5 3 21 V13.5 Q1.5 13.5 1.5 12 Z" fill="#F4ECDE"></path>
    <path d="M12 12 H22.5 Q22.5 13.5 21 13.5 V21 Q21 22.5 19.5 22.5 H13.5 Q13.5 21 12 21 Z" fill="#F5B13F"></path>
  </symbol>
  <symbol id="brand-mark-dark" viewBox="0 0 24 24">
    <path d="M3 3 H10.5 Q10.5 1.5 12 1.5 V10.5 H10.5 Q10.5 12 9 12 H3 Z" fill="#F5B13F"></path>
    <path d="M12 1.5 H13.5 Q13.5 3 15 3 H21 V10.5 Q22.5 10.5 22.5 12 H12 Z" fill="#F4ECDE"></path>
    <path d="M3 12 H12 V22.5 H4.5 Q3 22.5 3 21 V13.5 Q1.5 13.5 1.5 12 Z" fill="#F4ECDE"></path>
    <path d="M12 12 H22.5 Q22.5 13.5 21 13.5 V21 Q21 22.5 19.5 22.5 H13.5 Q13.5 21 12 21 Z" fill="#F5B13F"></path>
  </symbol>
  <symbol id="brand-mark-mono" viewBox="0 0 24 24">
    <path d="M3 3 H10.5 Q10.5 1.5 12 1.5 V10.5 H10.5 Q10.5 12 9 12 H3 Z" fill="currentColor"></path>
    <path d="M12 1.5 H13.5 Q13.5 3 15 3 H21 V10.5 Q22.5 10.5 22.5 12 H12 Z" fill="currentColor" opacity=".35"></path>
    <path d="M3 12 H12 V22.5 H4.5 Q3 22.5 3 21 V13.5 Q1.5 13.5 1.5 12 Z" fill="currentColor" opacity=".35"></path>
    <path d="M12 12 H22.5 Q22.5 13.5 21 13.5 V21 Q21 22.5 19.5 22.5 H13.5 Q13.5 21 12 21 Z" fill="currentColor"></path>
  </symbol>

  
  <symbol id="ic-back" viewBox="0 0 24 24" fill="none" stroke="currentColor" stroke-width="1.75" stroke-linecap="round" stroke-linejoin="round"><path d="M15 18 L9 12 L15 6"></path></symbol>
  <symbol id="ic-forward" viewBox="0 0 24 24" fill="none" stroke="currentColor" stroke-width="1.75" stroke-linecap="round" stroke-linejoin="round"><path d="M9 6 L15 12 L9 18"></path></symbol>
  <symbol id="ic-home" viewBox="0 0 24 24" fill="none" stroke="currentColor" stroke-width="1.75" stroke-linecap="round" stroke-linejoin="round"><path d="M3 11 L12 4 L21 11 V20 Q21 21 20 21 H15 V14 H9 V21 H4 Q3 21 3 20 Z"></path></symbol>
  <symbol id="ic-arrow-left" viewBox="0 0 24 24" fill="none" stroke="currentColor" stroke-width="1.75" stroke-linecap="round" stroke-linejoin="round"><path d="M19 12 H5 M11 6 L5 12 L11 18"></path></symbol>
  <symbol id="ic-arrow-right" viewBox="0 0 24 24" fill="none" stroke="currentColor" stroke-width="1.75" stroke-linecap="round" stroke-linejoin="round"><path d="M5 12 H19 M13 6 L19 12 L13 18"></path></symbol>
  <symbol id="ic-close" viewBox="0 0 24 24" fill="none" stroke="currentColor" stroke-width="1.75" stroke-linecap="round" stroke-linejoin="round"><path d="M6 6 L18 18 M18 6 L6 18"></path></symbol>
  <symbol id="ic-menu" viewBox="0 0 24 24" fill="none" stroke="currentColor" stroke-width="1.75" stroke-linecap="round" stroke-linejoin="round"><path d="M4 7 H20 M4 12 H20 M4 17 H20"></path></symbol>
  <symbol id="ic-more" viewBox="0 0 24 24" fill="currentColor"><circle cx="6" cy="12" r="1.5"></circle><circle cx="12" cy="12" r="1.5"></circle><circle cx="18" cy="12" r="1.5"></circle></symbol>
  <symbol id="ic-check" viewBox="0 0 24 24" fill="none" stroke="currentColor" stroke-width="1.75" stroke-linecap="round" stroke-linejoin="round"><path d="M5 12 L10 17 L19 7"></path></symbol>
  <symbol id="ic-plus" viewBox="0 0 24 24" fill="none" stroke="currentColor" stroke-width="1.75" stroke-linecap="round" stroke-linejoin="round"><path d="M12 5 V19 M5 12 H19"></path></symbol>
  <symbol id="ic-minus" viewBox="0 0 24 24" fill="none" stroke="currentColor" stroke-width="1.75" stroke-linecap="round" stroke-linejoin="round"><path d="M5 12 H19"></path></symbol>
  <symbol id="ic-search" viewBox="0 0 24 24" fill="none" stroke="currentColor" stroke-width="1.75" stroke-linecap="round" stroke-linejoin="round"><circle cx="11" cy="11" r="6"></circle><path d="M20 20 L16 16"></path></symbol>
  <symbol id="ic-settings" viewBox="0 0 24 24" fill="none" stroke="currentColor" stroke-width="1.75" stroke-linecap="round" stroke-linejoin="round"><circle cx="12" cy="12" r="3"></circle><path d="M19.4 15 A7.5 7.5 0 0 0 19.4 9 L21 7.7 L19.5 5 L17.6 5.7 A7.5 7.5 0 0 0 14.5 3.9 L14 2 H10 L9.5 3.9 A7.5 7.5 0 0 0 6.4 5.7 L4.5 5 L3 7.7 L4.6 9 A7.5 7.5 0 0 0 4.6 15 L3 16.3 L4.5 19 L6.4 18.3 A7.5 7.5 0 0 0 9.5 20.1 L10 22 H14 L14.5 20.1 A7.5 7.5 0 0 0 17.6 18.3 L19.5 19 L21 16.3 Z"></path></symbol>

  
  <symbol id="ic-play" viewBox="0 0 24 24" fill="currentColor" stroke="currentColor" stroke-width="1.75" stroke-linejoin="round"><path d="M7 5 L19 12 L7 19 Z"></path></symbol>
  <symbol id="ic-pause" viewBox="0 0 24 24" fill="currentColor"><rect x="7" y="5" width="3.5" height="14" rx="1"></rect><rect x="13.5" y="5" width="3.5" height="14" rx="1"></rect></symbol>
  <symbol id="ic-stop" viewBox="0 0 24 24" fill="currentColor"><rect x="6" y="6" width="12" height="12" rx="1.5"></rect></symbol>
  <symbol id="ic-restart" viewBox="0 0 24 24" fill="none" stroke="currentColor" stroke-width="1.75" stroke-linecap="round" stroke-linejoin="round"><path d="M4 12 A8 8 0 1 1 8 19"></path><path d="M4 5 V12 H11"></path></symbol>
  <symbol id="ic-shuffle" viewBox="0 0 24 24" fill="none" stroke="currentColor" stroke-width="1.75" stroke-linecap="round" stroke-linejoin="round"><path d="M3 7 H7 L17 17 H21 M17 17 L20 14 M17 17 L20 20"></path><path d="M3 17 H7 L10 14 M14 10 L17 7 H21 M17 7 L20 4 M17 7 L20 10"></path></symbol>
  <symbol id="ic-sparkle" viewBox="0 0 24 24" fill="currentColor" stroke="currentColor" stroke-width="1" stroke-linejoin="round"><path d="M12 3 L13.5 9.5 L20 11 L13.5 12.5 L12 19 L10.5 12.5 L4 11 L10.5 9.5 Z"></path><circle cx="19" cy="5" r="1"></circle><circle cx="5" cy="19" r="1"></circle></symbol>
  <symbol id="ic-trophy" viewBox="0 0 24 24" fill="none" stroke="currentColor" stroke-width="1.75" stroke-linecap="round" stroke-linejoin="round"><path d="M7 4 H17 V10 A5 5 0 0 1 7 10 Z"></path><path d="M7 7 H4 A2 2 0 0 0 4 11 H7"></path><path d="M17 7 H20 A2 2 0 0 1 20 11 H17"></path><path d="M10 14 H14 V17 H10 Z M8 20 H16"></path><path d="M10 17 L8 20 M14 17 L16 20"></path></symbol>
  <symbol id="ic-medal" viewBox="0 0 24 24" fill="none" stroke="currentColor" stroke-width="1.75" stroke-linecap="round" stroke-linejoin="round"><path d="M8 3 L12 10 L16 3"></path><circle cx="12" cy="15" r="6"></circle><path d="M12 12 L13 14 L15 14.3 L13.5 15.7 L14 18 L12 16.8 L10 18 L10.5 15.7 L9 14.3 L11 14 Z"></path></symbol>
  <symbol id="ic-target" viewBox="0 0 24 24" fill="none" stroke="currentColor" stroke-width="1.75" stroke-linecap="round" stroke-linejoin="round"><circle cx="12" cy="12" r="9"></circle><circle cx="12" cy="12" r="5"></circle><circle cx="12" cy="12" r="1.5" fill="currentColor"></circle></symbol>
  <symbol id="ic-timer" viewBox="0 0 24 24" fill="none" stroke="currentColor" stroke-width="1.75" stroke-linecap="round" stroke-linejoin="round"><circle cx="12" cy="13" r="8"></circle><path d="M12 8 V13 L15 15"></path><path d="M9 3 H15 M12 3 V5"></path></symbol>
  <symbol id="ic-hourglass" viewBox="0 0 24 24" fill="none" stroke="currentColor" stroke-width="1.75" stroke-linecap="round" stroke-linejoin="round"><path d="M6 3 H18 M6 21 H18"></path><path d="M7 3 V7 L12 12 L17 7 V3"></path><path d="M7 21 V17 L12 12 L17 17 V21"></path></symbol>
  <symbol id="ic-zoom-in" viewBox="0 0 24 24" fill="none" stroke="currentColor" stroke-width="1.75" stroke-linecap="round" stroke-linejoin="round"><circle cx="11" cy="11" r="6"></circle><path d="M20 20 L16 16 M11 8 V14 M8 11 H14"></path></symbol>
  <symbol id="ic-zoom-out" viewBox="0 0 24 24" fill="none" stroke="currentColor" stroke-width="1.75" stroke-linecap="round" stroke-linejoin="round"><circle cx="11" cy="11" r="6"></circle><path d="M20 20 L16 16 M8 11 H14"></path></symbol>
  <symbol id="ic-zoom-fit" viewBox="0 0 24 24" fill="none" stroke="currentColor" stroke-width="1.75" stroke-linecap="round" stroke-linejoin="round"><path d="M4 9 V4 H9 M15 4 H20 V9 M20 15 V20 H15 M9 20 H4 V15"></path><rect x="8" y="8" width="8" height="8" rx="1"></rect></symbol>
  <symbol id="ic-eye" viewBox="0 0 24 24" fill="none" stroke="currentColor" stroke-width="1.75" stroke-linecap="round" stroke-linejoin="round"><path d="M2 12 C5 6 8.5 4 12 4 S19 6 22 12 C19 18 15.5 20 12 20 S5 18 2 12 Z"></path><circle cx="12" cy="12" r="3"></circle></symbol>
  <symbol id="ic-eye-off" viewBox="0 0 24 24" fill="none" stroke="currentColor" stroke-width="1.75" stroke-linecap="round" stroke-linejoin="round"><path d="M3 3 L21 21"></path><path d="M10.5 6.2 A10 10 0 0 1 12 6 C15.5 6 19 8 22 12 A14 14 0 0 1 20 14.8"></path><path d="M6.5 7.5 C4.5 9 3 10.5 2 12 C5 18 8.5 20 12 20 A10 10 0 0 0 15.5 19.5"></path><path d="M9.5 9.5 A3 3 0 0 0 14.5 14.5"></path></symbol>
  <symbol id="ic-lightbulb" viewBox="0 0 24 24" fill="none" stroke="currentColor" stroke-width="1.75" stroke-linecap="round" stroke-linejoin="round"><path d="M9 18 H15 V20 A1 1 0 0 1 14 21 H10 A1 1 0 0 1 9 20 Z"></path><path d="M12 2 A7 7 0 0 0 8 15 V18 H16 V15 A7 7 0 0 0 12 2 Z"></path><path d="M10 12 L12 14 L14 12"></path></symbol>
  <symbol id="ic-flag" viewBox="0 0 24 24" fill="none" stroke="currentColor" stroke-width="1.75" stroke-linecap="round" stroke-linejoin="round"><path d="M5 21 V3 H15 L14 7 L15 11 H5"></path></symbol>

  
  <symbol id="ic-upload" viewBox="0 0 24 24" fill="none" stroke="currentColor" stroke-width="1.75" stroke-linecap="round" stroke-linejoin="round"><path d="M12 16 V4 M7 9 L12 4 L17 9"></path><path d="M4 16 V19 A2 2 0 0 0 6 21 H18 A2 2 0 0 0 20 19 V16"></path></symbol>
  <symbol id="ic-download" viewBox="0 0 24 24" fill="none" stroke="currentColor" stroke-width="1.75" stroke-linecap="round" stroke-linejoin="round"><path d="M12 4 V16 M7 11 L12 16 L17 11"></path><path d="M4 16 V19 A2 2 0 0 0 6 21 H18 A2 2 0 0 0 20 19 V16"></path></symbol>
  <symbol id="ic-save" viewBox="0 0 24 24" fill="none" stroke="currentColor" stroke-width="1.75" stroke-linecap="round" stroke-linejoin="round"><path d="M4 5 A1 1 0 0 1 5 4 H16 L20 8 V19 A1 1 0 0 1 19 20 H5 A1 1 0 0 1 4 19 Z"></path><path d="M7 4 V9 H15 V4"></path><rect x="8" y="13" width="8" height="7" rx="1"></rect></symbol>
  <symbol id="ic-image" viewBox="0 0 24 24" fill="none" stroke="currentColor" stroke-width="1.75" stroke-linecap="round" stroke-linejoin="round"><rect x="3" y="4" width="18" height="16" rx="2"></rect><circle cx="9" cy="10" r="1.5"></circle><path d="M4 17 L9 12 L14 17 L16 15 L20 19"></path></symbol>
  <symbol id="ic-folder" viewBox="0 0 24 24" fill="none" stroke="currentColor" stroke-width="1.75" stroke-linecap="round" stroke-linejoin="round"><path d="M3 7 A2 2 0 0 1 5 5 H10 L12 7 H19 A2 2 0 0 1 21 9 V18 A2 2 0 0 1 19 20 H5 A2 2 0 0 1 3 18 Z"></path></symbol>
  <symbol id="ic-file" viewBox="0 0 24 24" fill="none" stroke="currentColor" stroke-width="1.75" stroke-linecap="round" stroke-linejoin="round"><path d="M6 3 H14 L19 8 V20 A1 1 0 0 1 18 21 H6 A1 1 0 0 1 5 20 V4 A1 1 0 0 1 6 3 Z"></path><path d="M14 3 V8 H19"></path></symbol>
  <symbol id="ic-clipboard" viewBox="0 0 24 24" fill="none" stroke="currentColor" stroke-width="1.75" stroke-linecap="round" stroke-linejoin="round"><path d="M8 4 H16 V6 H8 Z"></path><path d="M6 5 H5 A1 1 0 0 0 4 6 V20 A1 1 0 0 0 5 21 H19 A1 1 0 0 0 20 20 V6 A1 1 0 0 0 19 5 H18"></path></symbol>
  <symbol id="ic-trash" viewBox="0 0 24 24" fill="none" stroke="currentColor" stroke-width="1.75" stroke-linecap="round" stroke-linejoin="round"><path d="M4 7 H20 M10 7 V5 A1 1 0 0 1 11 4 H13 A1 1 0 0 1 14 5 V7"></path><path d="M6 7 L7 20 A1 1 0 0 0 8 21 H16 A1 1 0 0 0 17 20 L18 7"></path><path d="M10 11 V17 M14 11 V17"></path></symbol>
  <symbol id="ic-edit" viewBox="0 0 24 24" fill="none" stroke="currentColor" stroke-width="1.75" stroke-linecap="round" stroke-linejoin="round"><path d="M4 20 H8 L19 9 L15 5 L4 16 Z"></path><path d="M14 6 L18 10"></path></symbol>
  <symbol id="ic-copy" viewBox="0 0 24 24" fill="none" stroke="currentColor" stroke-width="1.75" stroke-linecap="round" stroke-linejoin="round"><rect x="8" y="8" width="12" height="12" rx="2"></rect><path d="M16 8 V5 A1 1 0 0 0 15 4 H5 A1 1 0 0 0 4 5 V15 A1 1 0 0 0 5 16 H8"></path></symbol>
  <symbol id="ic-share" viewBox="0 0 24 24" fill="none" stroke="currentColor" stroke-width="1.75" stroke-linecap="round" stroke-linejoin="round"><circle cx="18" cy="5" r="3"></circle><circle cx="6" cy="12" r="3"></circle><circle cx="18" cy="19" r="3"></circle><path d="M8.5 10.5 L15.5 6.5 M8.5 13.5 L15.5 17.5"></path></symbol>
  <symbol id="ic-link" viewBox="0 0 24 24" fill="none" stroke="currentColor" stroke-width="1.75" stroke-linecap="round" stroke-linejoin="round"><path d="M10 14 A5 5 0 0 1 10 7 L13 4 A5 5 0 0 1 20 11 L18.5 12.5"></path><path d="M14 10 A5 5 0 0 1 14 17 L11 20 A5 5 0 0 1 4 13 L5.5 11.5"></path></symbol>

  
  <symbol id="ic-info" viewBox="0 0 24 24" fill="none" stroke="currentColor" stroke-width="1.75" stroke-linecap="round" stroke-linejoin="round"><circle cx="12" cy="12" r="9"></circle><path d="M12 11 V17 M12 7 V8"></path></symbol>
  <symbol id="ic-warning" viewBox="0 0 24 24" fill="none" stroke="currentColor" stroke-width="1.75" stroke-linecap="round" stroke-linejoin="round"><path d="M12 3 L22 20 H2 Z"></path><path d="M12 10 V14 M12 17 V17.5"></path></symbol>
  <symbol id="ic-error" viewBox="0 0 24 24" fill="none" stroke="currentColor" stroke-width="1.75" stroke-linecap="round" stroke-linejoin="round"><circle cx="12" cy="12" r="9"></circle><path d="M9 9 L15 15 M15 9 L9 15"></path></symbol>
  <symbol id="ic-success" viewBox="0 0 24 24" fill="none" stroke="currentColor" stroke-width="1.75" stroke-linecap="round" stroke-linejoin="round"><circle cx="12" cy="12" r="9"></circle><path d="M8 12 L11 15 L16 9"></path></symbol>
  <symbol id="ic-help" viewBox="0 0 24 24" fill="none" stroke="currentColor" stroke-width="1.75" stroke-linecap="round" stroke-linejoin="round"><circle cx="12" cy="12" r="9"></circle><path d="M9.5 9 A2.5 2.5 0 0 1 14.5 9 Q14.5 11 12 12 V14 M12 17 V17.5"></path></symbol>
  <symbol id="ic-lock" viewBox="0 0 24 24" fill="none" stroke="currentColor" stroke-width="1.75" stroke-linecap="round" stroke-linejoin="round"><rect x="5" y="11" width="14" height="10" rx="1.5"></rect><path d="M8 11 V7 A4 4 0 0 1 16 7 V11"></path><circle cx="12" cy="16" r="1.2" fill="currentColor"></circle></symbol>
  <symbol id="ic-unlock" viewBox="0 0 24 24" fill="none" stroke="currentColor" stroke-width="1.75" stroke-linecap="round" stroke-linejoin="round"><rect x="5" y="11" width="14" height="10" rx="1.5"></rect><path d="M8 11 V7 A4 4 0 0 1 15.5 5"></path><circle cx="12" cy="16" r="1.2" fill="currentColor"></circle></symbol>
  <symbol id="ic-heart" viewBox="0 0 24 24" fill="none" stroke="currentColor" stroke-width="1.75" stroke-linecap="round" stroke-linejoin="round"><path d="M12 20 S3 14 3 8.5 A4.5 4.5 0 0 1 12 6 A4.5 4.5 0 0 1 21 8.5 C21 14 12 20 12 20 Z"></path></symbol>
  <symbol id="ic-star" viewBox="0 0 24 24" fill="none" stroke="currentColor" stroke-width="1.75" stroke-linecap="round" stroke-linejoin="round"><path d="M12 3 L14.9 9.3 L22 10.3 L16.5 15 L17.8 22 L12 18.5 L6.2 22 L7.5 15 L2 10.3 L9.1 9.3 Z"></path></symbol>
  <symbol id="ic-bookmark" viewBox="0 0 24 24" fill="none" stroke="currentColor" stroke-width="1.75" stroke-linecap="round" stroke-linejoin="round"><path d="M6 3 H18 V21 L12 17 L6 21 Z"></path></symbol>

  
  <symbol id="ic-sun" viewBox="0 0 24 24" fill="none" stroke="currentColor" stroke-width="1.75" stroke-linecap="round" stroke-linejoin="round"><circle cx="12" cy="12" r="4"></circle><path d="M12 2 V4 M12 20 V22 M4.9 4.9 L6.3 6.3 M17.7 17.7 L19.1 19.1 M2 12 H4 M20 12 H22 M4.9 19.1 L6.3 17.7 M17.7 6.3 L19.1 4.9"></path></symbol>
  <symbol id="ic-moon" viewBox="0 0 24 24" fill="none" stroke="currentColor" stroke-width="1.75" stroke-linecap="round" stroke-linejoin="round"><path d="M20 14.5 A8 8 0 1 1 9.5 4 A6.5 6.5 0 0 0 20 14.5 Z"></path></symbol>
  <symbol id="ic-contrast" viewBox="0 0 24 24" fill="none" stroke="currentColor" stroke-width="1.75" stroke-linecap="round" stroke-linejoin="round"><circle cx="12" cy="12" r="9"></circle><path d="M12 3 V21 A9 9 0 0 0 12 3 Z" fill="currentColor"></path></symbol>
  <symbol id="ic-fullscreen" viewBox="0 0 24 24" fill="none" stroke="currentColor" stroke-width="1.75" stroke-linecap="round" stroke-linejoin="round"><path d="M4 9 V4 H9 M15 4 H20 V9 M20 15 V20 H15 M9 20 H4 V15"></path></symbol>
  <symbol id="ic-fullscreen-exit" viewBox="0 0 24 24" fill="none" stroke="currentColor" stroke-width="1.75" stroke-linecap="round" stroke-linejoin="round"><path d="M9 4 V9 H4 M20 9 H15 V4 M15 20 V15 H20 M4 15 H9 V20"></path></symbol>
  <symbol id="ic-volume" viewBox="0 0 24 24" fill="none" stroke="currentColor" stroke-width="1.75" stroke-linecap="round" stroke-linejoin="round"><path d="M4 10 V14 H7 L12 18 V6 L7 10 Z"></path><path d="M15 9 A4 4 0 0 1 15 15"></path><path d="M18 6 A8 8 0 0 1 18 18"></path></symbol>
  <symbol id="ic-volume-off" viewBox="0 0 24 24" fill="none" stroke="currentColor" stroke-width="1.75" stroke-linecap="round" stroke-linejoin="round"><path d="M4 10 V14 H7 L12 18 V6 L7 10 Z"></path><path d="M16 9 L21 14 M21 9 L16 14"></path></symbol>

  
  <symbol id="crest-easy" viewBox="0 0 24 24"><path d="M4 4 H20 V12 Q20 18 12 22 Q4 18 4 12 Z" fill="#E3F6EC" stroke="#22A36A" stroke-width="1.5"></path><path d="M8 12 L11 15 L16 9" fill="none" stroke="#22A36A" stroke-width="2" stroke-linecap="round" stroke-linejoin="round"></path></symbol>
  <symbol id="crest-normal" viewBox="0 0 24 24"><path d="M4 4 H20 V12 Q20 18 12 22 Q4 18 4 12 Z" fill="#FFF5E1" stroke="#E89813" stroke-width="1.5"></path><path d="M12 7 L13.5 11 L18 11.5 L14.5 14 L15.5 18.5 L12 16 L8.5 18.5 L9.5 14 L6 11.5 L10.5 11 Z" fill="#F4A52B" stroke="#B96A00" stroke-width="1" stroke-linejoin="round"></path></symbol>
  <symbol id="crest-hard" viewBox="0 0 24 24"><path d="M4 4 H20 V12 Q20 18 12 22 Q4 18 4 12 Z" fill="#FDEAD2" stroke="#C25A00" stroke-width="1.5"></path><path d="M12 6 L13 10 L17 10.5 L14 13 L15 17 L12 15 L9 17 L10 13 L7 10.5 L11 10 Z" fill="none" stroke="#C25A00" stroke-width="1.5" stroke-linejoin="round"></path><path d="M12 15 L12 19" stroke="#C25A00" stroke-width="1.5" stroke-linecap="round"></path></symbol>
  <symbol id="crest-expert" viewBox="0 0 24 24"><path d="M4 4 H20 V12 Q20 18 12 22 Q4 18 4 12 Z" fill="#FCE6E2" stroke="#B8361F" stroke-width="1.5"></path><path d="M12 6 Q9 9 9 12 Q9 15 12 15 Q15 15 15 12 Q15 10 13 8 Q14 10 13 11 Q12 10 12 6 Z" fill="#D94B3B" stroke="#7F2014" stroke-width="1" stroke-linejoin="round"></path><path d="M12 16 L10 19 L12 18 L14 19 Z" fill="#F6B641"></path></symbol>

  
  <symbol id="ic-refresh" viewBox="0 0 24 24" fill="none" stroke="currentColor" stroke-width="1.75" stroke-linecap="round" stroke-linejoin="round"><path d="M20 12 A8 8 0 0 1 6 17"></path><path d="M4 12 A8 8 0 0 1 18 7"></path><path d="M20 5 V10 H15 M4 19 V14 H9"></path></symbol>
  <symbol id="ic-undo" viewBox="0 0 24 24" fill="none" stroke="currentColor" stroke-width="1.75" stroke-linecap="round" stroke-linejoin="round"><path d="M4 9 H15 A5 5 0 0 1 15 19 H9"></path><path d="M8 5 L4 9 L8 13"></path></symbol>
  <symbol id="ic-redo" viewBox="0 0 24 24" fill="none" stroke="currentColor" stroke-width="1.75" stroke-linecap="round" stroke-linejoin="round"><path d="M20 9 H9 A5 5 0 0 0 9 19 H15"></path><path d="M16 5 L20 9 L16 13"></path></symbol>
  <symbol id="ic-puzzle" viewBox="0 0 24 24" fill="none" stroke="currentColor" stroke-width="1.75" stroke-linecap="round" stroke-linejoin="round"><path d="M4 8 A1 1 0 0 1 5 7 H9 Q9 5 10.5 5 Q12 5 12 7 H16 A1 1 0 0 1 17 8 V12 Q19 12 19 13.5 Q19 15 17 15 V19 A1 1 0 0 1 16 20 H12 Q12 18 10.5 18 Q9 18 9 20 H5 A1 1 0 0 1 4 19 V15 Q2 15 2 13.5 Q2 12 4 12 Z"></path></symbol>
  <symbol id="ic-grid" viewBox="0 0 24 24" fill="none" stroke="currentColor" stroke-width="1.75" stroke-linecap="round" stroke-linejoin="round"><rect x="4" y="4" width="7" height="7" rx="1"></rect><rect x="13" y="4" width="7" height="7" rx="1"></rect><rect x="4" y="13" width="7" height="7" rx="1"></rect><rect x="13" y="13" width="7" height="7" rx="1"></rect></symbol>
  <symbol id="ic-list" viewBox="0 0 24 24" fill="none" stroke="currentColor" stroke-width="1.75" stroke-linecap="round" stroke-linejoin="round"><path d="M8 6 H20 M8 12 H20 M8 18 H20"></path><circle cx="4" cy="6" r="1" fill="currentColor"></circle><circle cx="4" cy="12" r="1" fill="currentColor"></circle><circle cx="4" cy="18" r="1" fill="currentColor"></circle></symbol>
  <symbol id="ic-drag" viewBox="0 0 24 24" fill="currentColor"><circle cx="9" cy="6" r="1.5"></circle><circle cx="15" cy="6" r="1.5"></circle><circle cx="9" cy="12" r="1.5"></circle><circle cx="15" cy="12" r="1.5"></circle><circle cx="9" cy="18" r="1.5"></circle><circle cx="15" cy="18" r="1.5"></circle></symbol>
  <symbol id="ic-crop" viewBox="0 0 24 24" fill="none" stroke="currentColor" stroke-width="1.75" stroke-linecap="round" stroke-linejoin="round"><path d="M7 2 V17 A1 1 0 0 0 8 18 H22"></path><path d="M2 7 H17 A1 1 0 0 1 18 8 V22"></path></symbol>
  <symbol id="ic-rotate" viewBox="0 0 24 24" fill="none" stroke="currentColor" stroke-width="1.75" stroke-linecap="round" stroke-linejoin="round"><path d="M3 12 A9 9 0 1 0 6 5.5"></path><path d="M3 3 V8 H9.5"></path></symbol>
  <symbol id="ic-spinner" viewBox="0 0 24 24" fill="none" stroke="currentColor" stroke-width="2.5" stroke-linecap="round"><path d="M12 3 A9 9 0 1 1 3 12" opacity=".9"></path><path d="M3 12 A9 9 0 0 1 7 4" opacity=".3"></path></symbol>
  <symbol id="ic-github" viewBox="0 0 24 24" fill="currentColor"><path d="M12 2C6.477 2 2 6.484 2 12.017c0 4.425 2.865 8.18 6.839 9.504.5.092.682-.217.682-.483 0-.237-.008-.868-.013-1.703-2.782.605-3.369-1.343-3.369-1.343-.454-1.158-1.11-1.466-1.11-1.466-.908-.62.069-.608.069-.608 1.003.07 1.531 1.032 1.531 1.032.892 1.53 2.341 1.088 2.91.832.092-.647.35-1.088.636-1.338-2.22-.253-4.555-1.113-4.555-4.951 0-1.093.39-1.988 1.029-2.688-.103-.253-.446-1.272.098-2.65 0 0 .84-.27 2.75 1.026A9.564 9.564 0 0112 6.844c.85.004 1.705.115 2.504.337 1.909-1.296 2.747-1.027 2.747-1.027.546 1.379.202 2.398.1 2.651.64.7 1.028 1.595 1.028 2.688 0 3.848-2.339 4.695-4.566 4.943.359.309.678.92.678 1.855 0 1.338-.012 2.419-.012 2.747 0 .268.18.58.688.482A10.019 10.019 0 0022 12.017C22 6.484 17.522 2 12 2z"/></symbol>
</svg>